<?xml version="1.0" encoding="utf-8"?>
<!-- Svg Vector Icons : http://www.onlinewebfonts.com/icon -->
<!DOCTYPE svg PUBLIC "-//W3C//DTD SVG 1.1//EN" "http://www.w3.org/Graphics/SVG/1.1/DTD/svg11.dtd">
<svg version="1.1" xmlns="http://www.w3.org/2000/svg" xmlns:xlink="http://www.w3.org/1999/xlink" x="0px" y="0px" viewBox="0 0 1000 1000" enable-background="new 0 0 1000 1000" xml:space="preserve">
<metadata> Svg Vector Icons : http://www.onlinewebfonts.com/icon </metadata>
<g><path d="M731.8,325.2l-41.6-41.6c-7.7-7.6-20.1-7.6-27.7,0L498.3,447.8L340.2,289.7c-7.7-7.7-20.1-7.7-27.8,0l-41.7,41.7c-7.7,7.7-7.7,20.1,0,27.8l158.1,158.1L274.5,671.7c-7.7,7.7-7.7,20.1,0,27.7l41.6,41.6c7.7,7.6,20.1,7.6,27.7,0L498,586.7l162.2,162.2c7.7,7.7,20.1,7.7,27.8,0l41.7-41.7c7.7-7.7,7.7-20.1,0-27.8L567.6,517.1l164.2-164.2C739.5,345.2,739.5,332.8,731.8,325.2z M500,10C229.4,10,10,229.4,10,500c0,270.6,219.4,490,490,490c270.6,0,490-219.4,490-490C990,229.4,770.6,10,500,10z M495.9,913.5c-230.7,0-417.6-187-417.6-417.6c0-230.7,187-417.6,417.6-417.6s417.6,187,417.6,417.6C913.5,726.5,726.5,913.5,495.9,913.5z"/></g>
</svg>